<svg xmlns="http://www.w3.org/2000/svg" xmlns:xlink="http://www.w3.org/1999/xlink" data-name="Layer 1" preserveAspectRatio="xMidYMid meet" version="1.0" viewBox="-0.0 -0.0 155.8 441.0" zoomAndPan="magnify" style="fill: rgb(4, 3, 3);" original_string_length="1906"><g id="__id1974_skylm6uaw5"><path d="M19.37,97.86a1.49,1.49,0,0,0,2.12,0L77.88,41.47l56.39,56.39a1.45,1.45,0,0,0,1.06.44,1.48,1.48,0,0,0,1.06-.44l18.92-18.92a1.49,1.49,0,0,0,0-2.12L78.94.44a1.49,1.49,0,0,0-2.12,0L.44,76.82a1.49,1.49,0,0,0,0,2.12ZM77.88,3.62l74.25,74.26-16.8,16.8L78.94,38.29a1.53,1.53,0,0,0-1.06-.44,1.49,1.49,0,0,0-1.06.44L20.43,94.68,3.62,77.88Z" style="fill: inherit;"/></g><g id="__id1975_skylm6uaw5"><path d="M78.94,114.62a1.51,1.51,0,0,0-2.12,0L.44,191a1.49,1.49,0,0,0,0,2.12l18.93,18.93a1.51,1.51,0,0,0,2.12,0l56.39-56.39,56.39,56.39a1.49,1.49,0,0,0,1.06.44,1.53,1.53,0,0,0,1.06-.44l18.92-18.93a1.49,1.49,0,0,0,0-2.12Zm56.39,94.25L78.94,152.48a1.48,1.48,0,0,0-1.06-.44,1.45,1.45,0,0,0-1.06.44L20.43,208.87,3.62,192.06l74.26-74.25,74.25,74.25Z" style="fill: inherit;"/></g><g id="__id1976_skylm6uaw5"><path d="M78.94,228.81a1.49,1.49,0,0,0-2.12,0L.44,305.19A1.5,1.5,0,0,0,0,306.25a1.52,1.52,0,0,0,.44,1.06l18.93,18.92a1.49,1.49,0,0,0,2.12,0l56.39-56.39,56.39,56.39a1.45,1.45,0,0,0,1.06.44,1.48,1.48,0,0,0,1.06-.44l18.92-18.92a1.52,1.52,0,0,0,.44-1.06,1.5,1.5,0,0,0-.44-1.06Zm56.39,94.24L78.94,266.66a1.53,1.53,0,0,0-1.06-.44,1.49,1.49,0,0,0-1.06.44L20.43,323.05,3.62,306.25,77.88,232l74.25,74.26Z" style="fill: inherit;"/></g><g id="__id1977_skylm6uaw5"><path d="M78.94,343a1.49,1.49,0,0,0-2.12,0L.44,419.37A1.52,1.52,0,0,0,0,420.43a1.5,1.5,0,0,0,.44,1.06l18.93,18.93a1.51,1.51,0,0,0,2.12,0L77.88,384l56.39,56.39a1.49,1.49,0,0,0,1.06.44,1.53,1.53,0,0,0,1.06-.44l18.92-18.93a1.5,1.5,0,0,0,.44-1.06,1.52,1.52,0,0,0-.44-1.06Zm56.39,94.24L78.94,380.85a1.48,1.48,0,0,0-1.06-.44,1.45,1.45,0,0,0-1.06.44L20.43,437.24,3.62,420.43l74.26-74.25,74.25,74.25Z" style="fill: inherit;"/></g></svg>