<svg xmlns="http://www.w3.org/2000/svg" xmlns:xlink="http://www.w3.org/1999/xlink" data-name="Layer 1" preserveAspectRatio="xMidYMid meet" version="1.0" viewBox="0.0 0.0 408.0 160.0" zoomAndPan="magnify" style="fill: rgb(170, 166, 154);" original_string_length="3088"><g id="__id298_skylm6uaw5"><path d="M0,2A2,2,0,0,1,2,0C15.66,0,22.39,9.58,28.89,18.85,35.07,27.67,40.91,36,52.5,36s17.42-8.33,23.61-17.15C82.61,9.58,89.33,0,103,0s20.38,9.58,26.88,18.85c6.19,8.82,12,17.15,23.61,17.15s17.43-8.33,23.62-17.15C183.61,9.58,190.33,0,204,0s20.39,9.58,26.89,18.85c6.18,8.82,12,17.15,23.61,17.15s17.43-8.33,23.61-17.15C284.6,9.58,291.32,0,305,0s20.39,9.58,26.89,18.85c6.19,8.82,12,17.15,23.62,17.15s17.42-8.33,23.61-17.15C385.61,9.58,392.33,0,406,0a2,2,0,0,1,0,4c-11.59,0-17.43,8.33-23.62,17.15C375.88,30.42,369.16,40,355.5,40s-20.39-9.58-26.9-18.85C322.42,12.33,316.58,4,305,4s-17.43,8.33-23.61,17.15C274.88,30.42,268.16,40,254.49,40S234.1,30.42,227.6,21.15C221.42,12.33,215.58,4,204,4s-17.43,8.33-23.61,17.15C173.88,30.42,167.16,40,153.49,40s-20.38-9.58-26.88-18.85C120.42,12.33,114.58,4,103,4S85.57,12.33,79.38,21.15C72.88,30.42,66.16,40,52.5,40S32.11,30.42,25.61,21.15C19.43,12.33,13.58,4,2,4A2,2,0,0,1,0,2ZM406,60c-13.67,0-20.39,9.58-26.89,18.85C372.92,87.71,367.08,96,355.5,96s-17.43-8.33-23.62-17.15C325.38,69.62,318.66,60,305,60S284.6,69.62,278.1,78.89c-6.18,8.82-12,17.15-23.61,17.15s-17.43-8.33-23.61-17.15C224.38,69.62,217.66,60,204,60s-20.38,9.58-26.88,18.85c-6.19,8.82-12,17.15-23.62,17.15s-17.42-8.33-23.61-17.15C123.38,69.62,116.66,60,103,60S82.61,69.62,76.11,78.89C69.92,87.71,64.08,96,52.5,96S35.07,87.71,28.89,78.89C22.39,69.62,15.66,60,2,60a2,2,0,0,0,0,4c11.58,0,17.43,8.33,23.61,17.14C32.11,90.45,38.83,100,52.5,100s20.38-9.59,26.88-18.86C85.57,72.37,91.41,64,103,64s17.42,8.33,23.61,17.14c6.5,9.27,13.22,18.86,26.88,18.86s20.39-9.59,26.89-18.86C186.56,72.37,192.41,64,204,64s17.43,8.33,23.61,17.14c6.5,9.27,13.23,18.86,26.89,18.86s20.39-9.59,26.89-18.86C287.56,72.37,293.41,64,305,64s17.43,8.33,23.61,17.14c6.51,9.27,13.23,18.86,26.9,18.86s20.38-9.59,26.88-18.86C388.57,72.37,394.41,64,406,64a2,2,0,0,0,0-4Zm0,60c-13.67,0-20.39,9.59-26.89,18.85-6.19,8.82-12,17.15-23.61,17.15s-17.43-8.33-23.62-17.15c-6.5-9.26-13.22-18.85-26.89-18.85s-20.39,9.59-26.89,18.85c-6.18,8.82-12,17.15-23.61,17.15s-17.43-8.33-23.61-17.15c-6.5-9.26-13.22-18.85-26.89-18.85s-20.38,9.59-26.88,18.85c-6.19,8.82-12,17.15-23.62,17.15s-17.42-8.33-23.61-17.15c-6.5-9.26-13.22-18.85-26.88-18.85s-20.39,9.59-26.89,18.85c-6.19,8.82-12,17.15-23.61,17.15s-17.43-8.33-23.61-17.15c-6.5-9.26-13.23-18.85-26.89-18.85a2,2,0,0,0,0,4c11.58,0,17.43,8.33,23.61,17.15,6.5,9.27,13.22,18.85,26.89,18.85s20.38-9.58,26.88-18.85c6.19-8.82,12-17.15,23.62-17.15s17.42,8.33,23.61,17.15c6.5,9.27,13.22,18.85,26.88,18.85s20.39-9.58,26.89-18.85c6.18-8.82,12-17.15,23.61-17.15s17.43,8.33,23.61,17.15c6.5,9.27,13.23,18.85,26.89,18.85s20.39-9.58,26.89-18.85c6.18-8.82,12-17.15,23.61-17.15s17.43,8.33,23.61,17.15c6.51,9.27,13.23,18.85,26.9,18.85s20.38-9.58,26.88-18.85c6.19-8.82,12-17.15,23.62-17.15a2,2,0,0,0,0-4Z" style="fill: inherit;"/></g></svg>