<?xml version="1.0" encoding="UTF-8" standalone="no"?>
<!-- Created with Inkscape (http://www.inkscape.org/) -->

<svg
   width="6.844903mm"
   height="12.287841mm"
   viewBox="0 0 6.844903 12.287841"
   version="1.1"
   id="svg1"
   inkscape:version="1.3 (0e150ed6c4, 2023-07-21)"
   sodipodi:docname="male person.svg"
   xmlns:inkscape="http://www.inkscape.org/namespaces/inkscape"
   xmlns:sodipodi="http://sodipodi.sourceforge.net/DTD/sodipodi-0.dtd"
   xmlns="http://www.w3.org/2000/svg"
   xmlns:svg="http://www.w3.org/2000/svg">
  <sodipodi:namedview
     id="namedview1"
     pagecolor="#ffffff"
     bordercolor="#000000"
     borderopacity="0.25"
     inkscape:showpageshadow="2"
     inkscape:pageopacity="0.0"
     inkscape:pagecheckerboard="0"
     inkscape:deskcolor="#d1d1d1"
     inkscape:document-units="mm"
     inkscape:zoom="6.0019557"
     inkscape:cx="78.391115"
     inkscape:cy="50.733464"
     inkscape:window-width="2560"
     inkscape:window-height="1369"
     inkscape:window-x="-8"
     inkscape:window-y="-8"
     inkscape:window-maximized="1"
     inkscape:current-layer="layer1" />
  <defs
     id="defs1" />
  <g
     inkscape:label="Layer 1"
     inkscape:groupmode="layer"
     id="layer1"
     transform="translate(-22.224999,-56.620831)">
    <path
       id="path361"
       d="m 25.64745,56.620831 c 0.877816,0 1.58951,0.7118 1.58951,1.589793 0,0.878099 -0.711694,1.589899 -1.58951,1.589899 -0.877994,0 -1.589793,-0.7118 -1.589793,-1.589899 0,-0.877993 0.711799,-1.589793 1.589793,-1.589793 z m 0,8.29952 c -0.165594,0 -0.300179,0.131798 -0.304377,0.295804 v 0.008 3.052128 c 0,0.347874 -0.284233,0.632389 -0.632107,0.632389 v 0 c -0.348227,0 -0.632495,-0.284515 -0.632495,-0.632389 v -3.052128 -2.832982 -0.923819 c -0.588716,0.628721 -0.760131,1.804705 -0.799113,2.605405 -0.03581,0.733813 -0.989894,0.744396 -1.0408,0 -0.127917,-1.863901 0.650099,-3.711681 2.297501,-4.282475 0.314289,0.22158 0.697688,0.35179 1.111391,0.35179 0.413808,0 0.797207,-0.13021 1.111496,-0.35179 1.647402,0.570794 2.425312,2.418292 2.297395,4.282475 -0.0508,0.744396 -1.004993,0.733813 -1.0408,0 -0.03898,-0.8007 -0.210397,-1.976684 -0.798971,-2.605405 v 3.756801 h -4.24e-4 v 3.052128 c 0,0.347874 -0.284197,0.632389 -0.632107,0.632389 v 0 c -0.347874,0 -0.632177,-0.284515 -0.632177,-0.632389 v -3.052128 -0.008 c -0.0041,-0.164006 -0.138713,-0.295804 -0.304412,-0.295804"
       style="fill:red;fill-opacity:1;fill-rule:evenodd;stroke:none;stroke-width:0.352778" />
  </g>
</svg>
