<?xml version="1.0" encoding="UTF-8" standalone="no"?>
<!-- Created with Inkscape (http://www.inkscape.org/) -->

<svg
   width="117.60506mm"
   height="50.591568mm"
   viewBox="0 0 117.60507 50.591568"
   version="1.1"
   id="svg1"
   inkscape:version="1.3 (0e150ed6c4, 2023-07-21)"
   sodipodi:docname="arrow rotated.svg"
   xmlns:inkscape="http://www.inkscape.org/namespaces/inkscape"
   xmlns:sodipodi="http://sodipodi.sourceforge.net/DTD/sodipodi-0.dtd"
   xmlns="http://www.w3.org/2000/svg"
   xmlns:svg="http://www.w3.org/2000/svg">
  <sodipodi:namedview
     id="namedview1"
     pagecolor="#ffffff"
     bordercolor="#000000"
     borderopacity="0.25"
     inkscape:showpageshadow="2"
     inkscape:pageopacity="0.0"
     inkscape:pagecheckerboard="0"
     inkscape:deskcolor="#d1d1d1"
     inkscape:document-units="mm"
     inkscape:zoom="2.1220118"
     inkscape:cx="198.63226"
     inkscape:cy="225.02231"
     inkscape:window-width="2560"
     inkscape:window-height="1369"
     inkscape:window-x="-8"
     inkscape:window-y="-8"
     inkscape:window-maximized="1"
     inkscape:current-layer="layer1" />
  <defs
     id="defs1" />
  <g
     inkscape:label="Layer 1"
     inkscape:groupmode="layer"
     id="layer1"
     transform="rotate(-6.1463431,-1058.3325,525.23025)">
    <g
       id="__id1974_skylm6uaw5"
       style="fill:#040303"
       transform="matrix(0,-0.26458333,0.26458333,0,46.686257,169.14911)">
      <path
         d="m 19.37,97.86 a 1.49,1.49 0 0 0 2.12,0 l 56.39,-56.39 56.39,56.39 a 1.45,1.45 0 0 0 1.06,0.44 1.48,1.48 0 0 0 1.06,-0.44 l 18.92,-18.92 a 1.49,1.49 0 0 0 0,-2.12 L 78.94,0.44 a 1.49,1.49 0 0 0 -2.12,0 L 0.44,76.82 a 1.49,1.49 0 0 0 0,2.12 z M 77.88,3.62 152.13,77.88 135.33,94.68 78.94,38.29 a 1.53,1.53 0 0 0 -1.06,-0.44 1.49,1.49 0 0 0 -1.06,0.44 L 20.43,94.68 3.62,77.88 Z"
         id="path1" />
    </g>
    <g
       id="__id1975_skylm6uaw5"
       style="fill:#040303"
       transform="matrix(0,-0.26458333,0.26458333,0,46.686257,169.14911)">
      <path
         d="m 78.94,114.62 a 1.51,1.51 0 0 0 -2.12,0 L 0.44,191 a 1.49,1.49 0 0 0 0,2.12 l 18.93,18.93 a 1.51,1.51 0 0 0 2.12,0 l 56.39,-56.39 56.39,56.39 a 1.49,1.49 0 0 0 1.06,0.44 1.53,1.53 0 0 0 1.06,-0.44 l 18.92,-18.93 a 1.49,1.49 0 0 0 0,-2.12 z m 56.39,94.25 -56.39,-56.39 a 1.48,1.48 0 0 0 -1.06,-0.44 1.45,1.45 0 0 0 -1.06,0.44 l -56.39,56.39 -16.81,-16.81 74.26,-74.25 74.25,74.25 z"
         id="path2" />
    </g>
    <g
       id="__id1976_skylm6uaw5"
       style="fill:#040303"
       transform="matrix(0,-0.26458333,0.26458333,0,46.686257,169.14911)">
      <path
         d="m 78.94,228.81 a 1.49,1.49 0 0 0 -2.12,0 L 0.44,305.19 a 1.5,1.5 0 0 0 -0.44,1.06 1.52,1.52 0 0 0 0.44,1.06 l 18.93,18.92 a 1.49,1.49 0 0 0 2.12,0 l 56.39,-56.39 56.39,56.39 a 1.45,1.45 0 0 0 1.06,0.44 1.48,1.48 0 0 0 1.06,-0.44 l 18.92,-18.92 a 1.52,1.52 0 0 0 0.44,-1.06 1.5,1.5 0 0 0 -0.44,-1.06 z m 56.39,94.24 -56.39,-56.39 a 1.53,1.53 0 0 0 -1.06,-0.44 1.49,1.49 0 0 0 -1.06,0.44 L 20.43,323.05 3.62,306.25 77.88,232 l 74.25,74.26 z"
         id="path3" />
    </g>
    <g
       id="__id1977_skylm6uaw5"
       style="fill:#040303"
       transform="matrix(0,-0.26458333,0.26458333,0,46.686257,169.14911)">
      <path
         d="m 78.94,343 a 1.49,1.49 0 0 0 -2.12,0 L 0.44,419.37 a 1.52,1.52 0 0 0 -0.44,1.06 1.5,1.5 0 0 0 0.44,1.06 l 18.93,18.93 a 1.51,1.51 0 0 0 2.12,0 L 77.88,384 l 56.39,56.39 a 1.49,1.49 0 0 0 1.06,0.44 1.53,1.53 0 0 0 1.06,-0.44 l 18.92,-18.93 a 1.5,1.5 0 0 0 0.44,-1.06 1.52,1.52 0 0 0 -0.44,-1.06 z m 56.39,94.24 -56.39,-56.39 a 1.48,1.48 0 0 0 -1.06,-0.44 1.45,1.45 0 0 0 -1.06,0.44 l -56.39,56.39 -16.81,-16.81 74.26,-74.25 74.25,74.25 z"
         id="path4" />
    </g>
  </g>
</svg>
