<svg xmlns="http://www.w3.org/2000/svg" xmlns:xlink="http://www.w3.org/1999/xlink" preserveAspectRatio="xMidYMid meet" version="1.0" viewBox="-0.5 -0.5 248.0 248.0" zoomAndPan="magnify" style="fill: rgb(124, 82, 55);" original_string_length="32107"><g id="__id395_skylm6uaw5"><path d="M245.5575,214.7817c-4.0244,0.0703-8.1025,0.1197-12.1242-0.0321c-4.0825-0.1541-8.0342-0.5635-12.1234-0.1874 c-1.265,0.1163-2.5294,0.2498-3.7963,0.3452c-0.0672-1.7426-0.1617-3.4839-0.3416-5.2231 c-0.1973-1.9077-0.4125-3.8373-0.2883-5.7573c0.1326-2.0504,0.6813-4.048,0.9944-6.0732c0.284-1.8366,0.3698-3.6306,0.159-5.4802 c-0.2295-2.014-0.6954-3.996-0.892-6.0131c-0.1307-1.3405-0.0745-2.6673,0.0518-3.9895c0.7228-0.0027,1.4454-0.0014,2.1692-0.0167 c2.2452-0.0473,4.504-0.1625,6.7493-0.0965c2.1679,0.0637,4.3131,0.4165,6.4711,0.6033c4.4176,0.3823,8.5754-0.8923,12.9556-0.9963 c1.9273-0.0458,1.9344-3.046,0-3c-3.8881,0.0923-7.6557,1.274-11.5605,1.093c-1.8627-0.0864-3.7089-0.3629-5.5634-0.5417 c-2.0496-0.1977-4.0872-0.1622-6.1432-0.1226c-1.5693,0.0303-3.1378,0.0349-4.7061,0.0399c0.2064-1.4996,0.4075-3.001,0.45-4.5164 c0.1097-3.9092-1.1528-7.6937-1.0211-11.6099c0.0654-1.9433,0.2805-3.877,0.4311-5.8145c0.1628-2.0953,0.15-4.1937,0.2672-6.2911 c0.0463-0.8276,0.0922-1.6489,0.1347-2.468c0.1917-0.0026,0.3832-0.0043,0.5751-0.0075c9.0497-0.1517,18.0934,0.1544,27.1431,0.0506 c1.9291-0.0221,1.9342-3.0222,0-3c-8.0795,0.0927-16.1589-0.254-24.2369-0.1047c-1.1229,0.0208-2.2416,0.0411-3.3585,0.0659 c0.0615-2.2026,0.0421-4.4017-0.1744-6.6396c-0.1868-1.9315-0.3797-3.8615-0.3396-5.8047c0.0435-2.1054,0.2984-4.1982,0.4706-6.2951 c0.3186-3.8781,0.0233-7.7358-0.0653-11.6166c-0.0413-1.8062,0.1116-3.5916,0.2944-5.3734c3.2538,0.104,6.4995,0.3482,9.7579,0.0845 c3.9528-0.3199,7.8154-0.6725,11.7876-0.6695c1.9549,0.0015,3.9095,0.0099,5.864-0.0386c1.9271-0.0478,1.9344-3.048,0-3 c-3.8925,0.0966-7.8064-0.1174-11.6929,0.1441c-3.9852,0.2681-7.8661,0.8037-11.8736,0.6478 c-1.1865-0.0461-2.3668-0.0774-3.545-0.099c0.12-1.2604,0.2155-2.5231,0.2232-3.795c0.0244-4.0337-0.5236-8.0643-0.5797-12.1035 c-0.0552-3.9771-0.3547-7.9673,0.1152-11.9286c0.2191-1.847,0.5169-3.6888,0.5913-5.5499c0.0203-0.5076,0.0167-1.0132-0.0041-1.5174 c2.1691,0.0567,4.3397,0.1535,6.5098,0.1202c2.2618-0.0347,4.5037-0.3212,6.7536-0.5251c2.2468-0.2036,4.4996-0.201,6.7507-0.3293 c2.2478-0.1281,4.4919-0.3002,6.7437-0.3429c1.928-0.0366,1.9344-3.0367,0-3c-4.0034,0.076-8.0552,0.2898-12.0499,0.5554 c-4.0479,0.2692-7.9856,0.7037-12.0538,0.5963c-0.9838-0.026-1.9625-0.0218-2.9433-0.0334 c-0.0691-0.4887-0.1453-0.977-0.2238-1.4651c-0.3018-1.876-0.601-3.7299-0.5837-5.6363c0.0191-2.1032,0.2518-4.197,0.3981-6.2932 c0.3167-4.5366-0.2416-9.0343-0.2546-13.5684c-0.0065-2.2714,0.296-4.5201,0.491-6.779c0.096-1.1119,0.1339-2.2195,0.1358-3.3273 c0.0172-0.0009,0.0344-0.0018,0.0516-0.0027c4.504-0.2447,9.0072-0.3617,13.5143-0.5393c2.2631-0.0892,4.5018-0.1033,6.7576,0.124 c2.256,0.2273,4.4965,0.5513,6.7676,0.5821c1.9312,0.0262,1.9321-2.9738,0-3c-4.0485-0.0549-8.0119-0.865-12.0745-0.7559 c-4.0175,0.1079-8.0584,0.1892-12.07,0.417c-1.0068,0.0571-2.0137,0.1032-3.0207,0.1445c-0.0063-0.1421-0.0098-0.2836-0.0167-0.4259 c-0.2194-4.5408-0.4352-9.0357-0.9157-13.5565c-0.4844-4.5572,0.2212-9.0289,0.1661-13.5844c-0.0233-1.929-3.0234-1.9343-3,0 c0.049,4.0513-0.6231,8.0765-0.3045,12.1286c0.1526,1.9417,0.4512,3.8683,0.623,5.808c0.1854,2.0929,0.171,4.2007,0.2786,6.2988 c0.0594,1.159,0.1012,2.3051,0.1294,3.4469c-1.8401,0.0667-3.6802,0.1343-5.5198,0.2371c-1.9248,0.1075-3.8575,0.2318-5.7861,0.1764 c-2.1012-0.0604-4.1863-0.3484-6.2802-0.5107c-3.9138-0.3032-7.6836,0.3788-11.5748,0.6042 c-1.0401,0.0602-2.0771,0.049-3.1127,0.002c-0.0158-0.3476-0.0276-0.695-0.0529-1.0432c-0.3269-4.5176-0.4912-9.0313-0.6971-13.556 c-0.2068-4.5444,0.2151-9.0469,0.1915-13.5869c-0.0101-1.9299-3.0101-1.9339-3,0c0.0211,4.0485-0.3918,8.0776-0.2515,12.1285 c0.1396,4.0297,0.2231,8.0918,0.5283,12.1115c0.0952,1.2537,0.1607,2.4944,0.2109,3.7318 c-1.9581-0.1657-3.9161-0.3461-5.8843-0.3152c-3.8452,0.0603-7.7371,0.1848-11.5745,0.4336 c-4.0596,0.2631-7.9779,0.8176-12.0544,0.4282c-0.4827-0.0461-0.9653-0.0964-1.4479-0.1461 c-0.0459-0.5714-0.0795-1.1463-0.1393-1.7134c-0.2369-2.2467-0.582-4.5053-0.5255-6.7706c0.0549-2.2035,0.5834-4.3596,0.8826-6.5356 c0.6182-4.4955-0.4759-8.8654-0.5792-13.3526c-0.0444-1.9274-3.0446-1.9344-3,0c0.0923,4.0103,1.1282,8.0081,0.7408,12.0251 c-0.1799,1.8657-0.6044,3.7004-0.8445,5.5587c-0.2673,2.0687-0.2015,4.0967,0.006,6.1682c0.1458,1.4547,0.3405,2.906,0.4606,4.3632 c-0.4501-0.0252-0.9006-0.0437-1.352-0.0471c-2.0904-0.016-4.1793,0.1818-6.2618,0.337c-3.8849,0.2894-7.6923,0.1227-11.5774-0.0274 c-5.4362-0.2101-10.8879-0.0795-16.333,0.0843c-0.1083-7.5407-0.3834-15.0735-0.5245-22.6135 c-0.0366-1.9548-0.0746-3.9097-0.1268-5.8642c-0.0515-1.9268-3.0517-1.9344-3,0c0.212,7.9362,0.4785,15.878,0.5924,23.8158 c0.0227,1.584,0.0446,3.168,0.0649,4.7521c-1.4373,0.0438-2.8741,0.0867-4.3096,0.1218c-4.0177,0.0983-8.027,0.6715-12.0491,0.4185 c-3.907-0.2458-7.6614-0.6006-11.582-0.3459c-2.7766,0.1804-5.5532,0.2833-8.3308,0.3927c0.0036-0.707,0.0156-1.4146,0.0347-2.1238 c0.2422-8.9977,0.5968-18.0161,0.493-27.0187c-0.0223-1.9291-3.0223-1.9343-3,0c0.0927,8.0353-0.1733,16.0928-0.4044,24.1229 c-0.05,1.7376-0.0901,3.4435-0.0668,5.144c-0.2607,0.0117-0.5212,0.0213-0.7819,0.0337c-3.881,0.1845-7.7061,0.0463-11.584-0.1016 c-4.4847-0.171-9.0317-0.1597-13.5189-0.0602c-2.2546,0.05-4.4956,0.3157-6.7435,0.4731c-1.4017,0.0981-2.8056,0.1219-4.2097,0.1486 c-0.0136-0.9044-0.0258-1.8089-0.0167-2.7145c0.0226-2.2551,0.0382-4.5103,0.0587-6.7653c0.0206-2.2637,0.3173-4.5002,0.527-6.7507 c0.424-4.5503-0.3846-8.9871-0.4081-13.5277c-0.0099-1.9299-3.01-1.934-3,0c0.0209,4.0374,0.7871,8.0337,0.5264,12.0769 c-0.1248,1.9365-0.4008,3.8594-0.5458,5.7942c-0.1564,2.0866-0.1002,4.1854-0.1241,6.2765 c-0.0218,1.9017-0.0274,3.7991-0.014,5.6963c-1.9456,0.0743-3.892,0.1634-5.8389,0.1601c-2.2568-0.0038-4.4963-0.2639-6.7433-0.4387 c-2.2511-0.175-4.5068-0.1335-6.7593-0.282c-2.2591-0.149-4.511-0.3627-6.7767-0.3785c-1.9308-0.0134-1.9329,2.9866,0,3 c8.0636,0.0561,16.0896,1.2954,24.1579,1.0106c0.6739-0.0238,1.3475-0.0429,2.0212-0.0627 c0.0234,1.1199,0.0332,2.2391,0.0778,3.3607c0.1602,4.0327,0.0248,8.0341-0.0605,12.0657 c-0.0854,4.0377,0.4029,8.0291,0.4845,12.0591c0.0424,2.0914-0.0329,4.1823-0.093,6.2732 c-0.1796-0.0048-0.3579-0.0004-0.5377-0.0067c-2.2297-0.0771-4.4768-0.2289-6.7081-0.1622 c-2.1672,0.0647-4.3063,0.4533-6.4614,0.6569c-2.2216,0.21-4.3183,0.0816-6.5048-0.3549c-2.1112-0.4214-4.2051-0.8998-6.3653-0.973 c-1.931-0.0655-1.9285,2.9346,0,3C6.251,70.3661,9.924,71.8585,13.852,71.666c1.8547-0.0909,3.6895-0.396,5.5342-0.5901 c2.0446-0.215,4.0715-0.1728,6.1229-0.1082c1.1285,0.0356,2.2546,0.0714,3.3799,0.1029c-0.0042,0.7708-0.0068,1.5416,0.0187,2.3125 c0.1339,4.0294,0.5582,8.0173,0.5595,12.0554c0.0013,4.0313-0.0443,8.0367,0.3185,12.0558c0.2653,2.938,0.3207,5.8445,0.3047,8.7695 c-0.8724-0.0108-1.745-0.0181-2.6151-0.0403c-3.8594-0.0989-7.7089-0.1207-11.5692-0.0729 c-3.4482,0.0427-6.8202,0.0198-10.2483,0.4646c-1.1043,0.1433-2.2238,0.3328-3.341,0.2894c-1.9307-0.075-1.9274,2.9252,0,3 c2.6895,0.1045,5.416-0.6321,8.1088-0.736c3.7139-0.1433,7.479-0.0916,11.1967-0.067c2.8004,0.0186,5.6221,0.0365,8.4332,0.1185 c-0.0019,0.1105-0.0024,0.2198-0.0044,0.3304c-0.072,4.0436,0.3301,8.0218,0.5081,12.0541 c0.1664,3.7706-0.8606,7.3828-0.9243,11.1313c-0.0652,3.847,0.0695,7.7017,0.0814,11.5499 c-0.3729-0.0043-0.7456-0.0077-1.1189-0.0153c-4.5394-0.0927-9.0272-0.0474-13.5624,0.1674 c-4.5601,0.2159-9.0378-0.3988-13.5862-0.3748c-1.9299,0.0102-1.934,3.0103,0,3c4.0552-0.0214,8.0673,0.5823,12.129,0.437 c4.0467-0.1447,8.0611-0.3796,12.1135-0.2949c1.3453,0.0281,2.683,0.0538,4.0186,0.0877c-0.0198,3.1772-0.0596,6.3519,0.0121,9.5313 c0.089,3.9495,0.0374,7.8557,0.7761,11.7499c0.3521,1.8563,0.7234,3.6937,0.7034,5.5925c-0.0213,2.0065-0.3483,3.993-0.5752,5.9822 c-0.0886,0.7769-0.1268,1.5427-0.1427,2.3044c-0.7303-0.0461-1.4592-0.1055-2.184-0.1995c-2.1617-0.2803-4.311-0.6493-6.4976-0.6463 c-2.2551,0.0031-4.5099,0.1754-6.7615,0.2816c-4.5167,0.2129-9.0597,0.3111-13.5812,0.3686c-1.929,0.0245-1.9343,3.0247,0,3 c4.0381-0.0513,8.087-0.1623,12.1228-0.3066c3.9849-0.1426,7.9651-0.5884,11.9396-0.0758c1.6754,0.2161,3.3481,0.4947,5.0358,0.5981 c0.1316,2.0117,0.3851,4.0159,0.5741,6.08c0.4084,4.4601,0.2254,9.0357,0.2556,13.513c0.0215,3.1894,0.1679,6.4129,0.026,9.6102 c-0.9329-0.0096-1.8668-0.0463-2.8074-0.1136c-4.546-0.3254-9.0059-0.3929-13.5626-0.3092 c-2.2644,0.0416-4.5238,0.0122-6.7831,0.1954c-2.2676,0.184-4.5245,0.4464-6.8022,0.4658c-1.9295,0.0164-1.9341,3.0164,0,3 c4.0497-0.0345,8.0707-0.5883,12.1263-0.6381c4.0435-0.0496,8.0793-0.2459,12.1174,0.0578 c1.8222,0.1371,3.6439,0.3144,5.4716,0.3601c-0.0287,0.2471-0.0505,0.4949-0.0847,0.7413 c-0.6068,4.3839-0.6586,8.7538-0.7874,13.1739c-0.0641,2.2026-0.0374,4.3391,0.3074,6.5198 c0.3444,2.179,0.8539,4.3142,0.8894,6.5303c0.0309,1.9285,3.0309,1.9344,3,0c-0.0627-3.9166-1.2966-7.6588-1.2314-11.5955 c0.0652-3.9371-0.0291-8.0146,0.4514-11.9225c0.1457-1.1852,0.3333-2.3663,0.4827-3.5515c1.1174-0.0975,2.2313-0.2397,3.3477-0.3851 c1.6822-0.219,3.373-0.4235,5.0727-0.3722c2.0486,0.0618,4.0564,0.5054,6.0783,0.7983c1.827,0.2648,3.6325,0.4077,5.4766,0.2468 c2.0179-0.176,4.0032-0.5995,6.0162-0.8116c2.6129-0.2753,5.3005-0.2524,7.9699-0.1981c0.0053,0.2591,0.004,0.5173,0.0154,0.7772 c0.0981,2.2518,0.2618,4.5015,0.232,6.7568c-0.0298,2.255-0.2109,4.5046-0.3393,6.7552c-0.2559,4.4848-0.4501,9.0054-0.5411,13.4967 c-0.0391,1.9313,2.9609,1.9311,3,0c0.0813-4.0144,0.2881-8.0405,0.466-12.0518c0.1789-4.0319,0.5159-8.0185,0.3263-12.0583 c-0.0571-1.217-0.0907-2.4188-0.11-3.6168c0.3237,0.0049,0.6478,0.0105,0.9697,0.0128c3.8899,0.0278,7.7273,0.7531,11.6199,0.7407 c4.0374-0.0129,8.0762-0.2817,12.1105-0.0207c3.7476,0.2425,7.3724,0.482,11.1042,0.2363c0.0061,0.5504,0.0034,1.098,0.0218,1.6524 c0.1262,3.7972,0.0036,7.5247-0.3161,11.31c-0.2901,3.4343-0.3002,6.8829-0.4956,10.3235 c-0.0656,1.1542-0.1437,2.3075-0.2125,3.4615c-0.1149,1.9285,2.8856,1.9218,3,0c0.1676-2.8129,0.3458-5.6234,0.4329-8.4403 c0.1144-3.6997,0.5546-7.3757,0.6639-11.0737c0.0737-2.4911-0.0578-4.9813-0.1293-7.4717c1.2769-0.1005,2.5549-0.1736,3.838-0.1475 c2.1051,0.0428,4.1982,0.2908,6.2952,0.4586c3.8747,0.3101,7.7382,0.0425,11.6165-0.0316 c4.0319-0.0769,8.0694,0.0536,12.1017,0.0719c0.0236,0.0001,0.0472,0.0008,0.0709,0.0009c0.0049,0.1354,0.0074,0.27,0.0128,0.4056 c0.1797,4.5327,0.3408,9.0389,0.7186,13.5594c0.1886,2.2568,0.1787,4.5194,0.318,6.779c0.1395,2.264,0.3302,4.5232,0.3726,6.7921 c0.0361,1.9282,3.0362,1.9344,3,0c-0.0753-4.0268-0.3384-8.0943-0.5823-12.1143c-0.1178-1.9409-0.3569-3.8719-0.4894-5.8117 c-0.1432-2.0956-0.1203-4.2004-0.21-6.2991c-0.0466-1.0909-0.097-2.1822-0.139-3.2736c6.8822,0.0914,13.7728,0.3342,20.6492,0.201 c4.8959-0.0948,9.7893-0.1716,14.6816-0.2979c-0.0068,0.1517-0.0092,0.3026-0.0172,0.4545 c-0.2387,4.5412-0.2505,9.0181-0.1459,13.5641c0.0522,2.266,0.0943,4.5203-0.0651,6.7831 c-0.1599,2.2695-0.3964,4.5292-0.3913,6.8069c0.0043,1.9302,3.0043,1.9338,3,0c-0.0091-4.0554,0.5656-8.0685,0.4877-12.1313 c-0.0775-4.0394-0.2844-8.0787-0.0574-12.1162c0.0645-1.147,0.1417-2.2939,0.1969-3.4418c2.174-0.068,4.3478-0.1482,6.5215-0.2525 c4.3569-0.209,8.7249-0.0038,13.0847-0.0032c3.2661,0.0004,6.4969,0.3151,9.7444,0.3476c0.0054,0.3091,0.0088,0.6183,0.0179,0.9274 c0.1332,4.5248,0.2299,9.0434,0.4136,13.5665c0.0901,2.2177,0.0624,4.3973-0.187,6.6042c-0.2446,2.1635-0.5601,4.3126-0.5835,6.4939 c-0.0208,1.931,2.9792,1.9324,3,0c0.0419-3.9033,0.9115-7.7231,0.8193-11.638c-0.0951-4.0393-0.2605-8.0799-0.3724-12.1193 c-0.0362-1.3045-0.0637-2.6078-0.0943-3.9105c0.2666-0.0165,0.5327-0.0255,0.7998-0.0487c2.2607-0.1962,4.5171-0.4847,6.7889-0.5157 c2.2654-0.0309,4.5204,0.2089,6.7785,0.3505c4.4927,0.2818,9.0823,0.1874,13.5833,0.1088 C247.4858,217.7481,247.4919,214.7479,245.5575,214.7817z M214.4826,169.1914c0.2897,1.8692,0.5895,3.7272,0.5362,5.6257 c-0.0426,1.5179-0.2562,3.0215-0.4683,4.5239c-5.4987-0.0112-10.9944-0.0683-16.4949,0.152 c-1.8988,0.076-3.8057,0.0486-5.6985,0.2294c-2.0065,0.1917-3.9938,0.5497-6.0031,0.716c-0.6659,0.0551-1.337,0.0834-2.0071,0.1168 c0.2367-2.0596,0.4999-4.1152,0.4827-6.1965c-0.0323-3.897-1.0427-7.7079-0.8734-11.618c0.0843-1.9466,0.3552-3.8783,0.5115-5.8192 c0.1691-2.1,0.1108-4.1918,0.019-6.2941c-0.0239-0.5472-0.0424-1.0949-0.0627-1.6424c0.3476-0.0053,0.6954-0.0045,1.0428-0.014 c2.1053-0.0578,4.1962-0.3331,6.2947-0.4915c2.2501-0.1699,4.4341-0.1153,6.6674,0.2107c2.1304,0.311,4.2611,0.7057,6.4211,0.7145 c2.2681,0.0093,4.5198-0.3289,6.7726-0.5448c1.0974-0.1052,2.1945-0.1531,3.2925-0.1802c-0.1178,2.9085-0.262,5.8267-0.4864,8.7131 c-0.1506,1.9376-0.3657,3.8712-0.4311,5.8145C213.9298,165.2275,214.1737,167.1989,214.4826,169.1914z M72.6842,90.2307 c-0.1243-1.9315-0.3585-3.8545-0.4657-5.7872c-0.1161-2.0936-0.1186-4.1807-0.2969-6.2727 c-0.1966-2.3069-0.2953-4.6215-0.3483-6.9394c0.4123-0.0032,0.828-0.0189,1.2392-0.0195 c8.0521-0.0106,16.0801,0.2922,24.1278,0.4365c3.5953,0.0645,7.1837,0.1235,10.7709,0.1409 c-0.0073,0.6751-0.0116,1.3505-0.0303,2.0244c-0.1137,4.0961-0.3082,8.2065-0.4839,12.3007 c-0.1798,4.1891-0.2163,8.3595-0.2145,12.552c0.0012,2.7603,0.1104,5.5009,0.2302,8.246c-2.7112,0.0388-5.4224,0.0785-8.1328,0.1353 c-1.9976,0.0419-3.9957,0.0416-5.993,0.0798c-2.019,0.0386-4.0178,0.3366-6.0219,0.556c-2.0018,0.2191-3.9847,0.3118-5.9908,0.088 c-1.9263-0.215-3.8273-0.6145-5.7557-0.8179c-0.861-0.0908-1.7167-0.1054-2.5703-0.0853c0.0674-1.6853,0.1244-3.3708,0.1176-5.0579 C72.8505,97.9634,72.9313,94.0701,72.6842,90.2307z M215.7874,73.6009c-0.0744,1.8611-0.3722,3.7029-0.5913,5.5499 c-0.2424,2.0435-0.2772,4.0624-0.241,6.1178c0.071,4.0302,0.0325,8.086,0.3627,12.1039c0.1589,1.9329,0.3545,3.8687,0.3427,5.8104 c-0.0076,1.2625-0.1249,2.5167-0.2664,3.7689c-1.9832,0.0035-3.9669,0.0452-5.9671,0.1389 c-4.1205,0.1929-8.2073,0.0577-12.3279-0.014c-4.121-0.0718-8.2127,0.3922-12.3293,0.4506 c-0.4606,0.0065-0.9227,0.0201-1.3853,0.0364c0.0648-1.4614,0.1285-2.9217,0.1287-4.3768c0.0007-3.8807,0.459-7.7411,0.3343-11.6243 c-0.1288-4.0087-0.1764-8.1113-0.6146-12.0966c-0.2128-1.9358-0.5161-3.864-0.6097-5.8113 c-0.0319-0.6622-0.0347-1.325-0.0272-1.9879c2.9675-0.2649,5.8828-0.1185,8.9233,0.0173c2.2529,0.1006,4.5059,0.0534,6.7558,0.2243 c2.2505,0.1709,4.4931,0.4277,6.7532,0.4234c3.5875-0.0068,7.1649-0.2252,10.7496-0.262 C215.8012,72.5783,215.8079,73.0883,215.7874,73.6009z M179.6233,73.6545c0.0937,1.9473,0.3969,3.8755,0.6097,5.8113 c0.2302,2.0942,0.2279,4.1888,0.326,6.2906c0.1892,4.0559,0.389,8.0464,0.152,12.1061c-0.1913,3.277-0.222,6.5576-0.3135,9.838 c-2.614,0.1335-5.2365,0.2563-7.8201,0.0212c-2.0049-0.1824-3.9846-0.5743-5.9897-0.7567c-2.0546-0.187-4.1177-0.0632-6.1724,0.066 c-3.8742,0.2433-7.7408,0.3567-11.6089,0.6686c0.1521-1.8097,0.2671-3.6192,0.2119-5.4249 c-0.1203-3.9323-1.0057-7.7177-0.6434-11.6732c0.1776-1.9391,0.4917-3.8636,0.6437-5.8053 c0.1605-2.0508,0.0388-4.0589-0.2155-6.0964c-0.2305-1.8475-0.5193-3.693-0.5497-5.5583c-0.0059-0.3647,0.0035-0.7293,0.0109-1.094 c2.8393-0.0798,5.6799-0.2032,8.5173-0.2689c3.9966-0.0923,7.9567-0.4012,11.9257,0.2151c1.8098,0.281,3.6298,0.6082,5.4652,0.6504 c1.8204,0.0419,3.6248-0.2527,5.4135-0.5668C179.5874,72.603,179.598,73.1287,179.6233,73.6545z M180.3647,115.2097 c0.1661,2.009,0.5245,3.9961,0.717,6.0023c0.3874,4.0361-0.48,7.9742-0.5168,11.9987c-0.0369,4.0298,0.5743,8.0642,0.6901,12.0953 c0.0071,0.246,0.0181,0.4922,0.0273,0.7384c-2.6426,0.0366-5.2864,0.0555-7.9255,0.0508 c-3.8759-0.0069-7.7502,0.0531-11.6264,0.0244c-3.9977-0.0296-8.0131,0.1391-11.967-0.529 c-0.7111-0.1202-1.4241-0.2427-2.1386-0.3561c-0.004-0.2973-0.02-0.5944-0.0188-0.8917c0.0085-2.1143,0.2985-4.1948,0.5676-6.2877 c0.2482-1.9297,0.4382-3.8551,0.3466-5.803c-0.0992-2.1095-0.4404-4.1977-0.6015-6.3019c-0.2966-3.873,0.2698-7.7472,0.3904-11.6165 c0.0378-1.2138,0.1306-2.4294,0.2358-3.6457c1.9392-0.1593,3.8781-0.3406,5.8295-0.3693c4.0583-0.0594,8.1599-0.7225,12.2134-0.3536 c2.0049,0.1824,3.9846,0.5743,5.9897,0.7567c1.9747,0.1797,3.966,0.0753,5.944,0.001c0.5944-0.0223,1.1885-0.0416,1.7827-0.0618 C180.2566,112.1777,180.2395,113.6965,180.3647,115.2097z M110.2135,141.0302c0.2205-2.004,0.6386-3.9817,0.8217-5.991 c0.175-1.92,0.0203-3.7958-0.2629-5.6971c-0.3005-2.0172-0.7321-4.0168-0.7668-6.0634c-0.0355-2.0875,0.1458-4.1778,0.2716-6.2598 c0.1457-2.4097,0.0893-4.7908-0.0117-7.1747c2.445-0.0599,4.8881-0.039,7.2991,0.3807c1.9656,0.3422,3.9371,0.7614,5.9379,0.824 c2.0053,0.0627,4.0153-0.1752,6.0082-0.3647c4.2498-0.4042,8.3163-0.0204,12.5583,0.2114c1.1372,0.0622,2.2692,0.0472,3.399-0.0031 c-0.2325,3.2391-0.3431,6.4919-0.5278,9.7322c-0.1013,1.7781-0.1576,3.5474-0.0214,5.3253 c0.1611,2.1042,0.5023,4.1924,0.6015,6.3019c0.191,4.0636-0.8978,8.0352-0.9142,12.0906c-0.0007,0.1826,0.0073,0.3647,0.0081,0.5472 c-0.108-0.0061-0.2153-0.0194-0.3234-0.0237c-2.1008-0.0833-4.1972,0.1829-6.2834,0.3887 c-4.0196,0.3965-8.0759,0.2341-12.1105,0.2112c-4.0348-0.0228-8.0698,0.0518-12.1041,0.0184 c-1.2012-0.0099-2.4027-0.0303-3.6043-0.0525C110.0813,143.9719,110.0509,142.5076,110.2135,141.0302z M146.0186,84.7963 c-0.3157,4.0339-0.9993,7.8663-0.5492,11.9266c0.2048,1.8479,0.492,3.6909,0.549,5.5519c0.0571,1.8679-0.1191,3.7343-0.2984,5.5931 c-3.3187,0.064-6.5841-0.2725-9.928-0.4243c-4.1194-0.187-8.1798,0.734-12.2896,0.6054c-2.0477-0.064-4.0444-0.5558-6.0608-0.8712 c-1.9387-0.3032-3.8382-0.3622-5.7972-0.3307c-0.5041,0.0081-1.0084,0.0147-1.5126,0.0223 c-0.0352-0.7206-0.0717-1.4406-0.1008-2.1652c-0.329-8.1747-0.057-16.4537,0.3077-24.6221c0.124-2.7767,0.2346-5.532,0.2906-8.2957 c3.4806-0.0122,6.9609-0.0705,10.4459-0.2451c3.9107-0.196,7.6906,0.4067,11.5816,0.6091 c4.0019,0.2083,8.0573,0.0009,12.0638-0.0325c0.1791-0.0015,0.3583-0.0074,0.5374-0.0096 c-0.0045,0.3443-0.0102,0.6886-0.0046,1.0333C145.3175,77.0618,146.3271,80.8543,146.0186,84.7963z M75.3186,109.9534 c2.0051,0.2115,3.9818,0.6358,5.9884,0.842c3.9636,0.4073,7.8301-0.5926,11.78-0.668c4.094-0.0782,8.1901-0.0969,12.2845-0.1479 c0.6555-0.0082,1.3126-0.0265,1.9701-0.0469c0.0147,0.3492,0.0308,0.6973,0.0447,1.047c0.1627,4.1119-0.4506,8.1926-0.3809,12.2992 c0.0688,4.051,1.4147,7.9112,1.0064,11.9918c-0.193,1.9291-0.588,3.8322-0.7983,5.7596c-0.1587,1.4539-0.1483,2.8998-0.0527,4.348 c-1.8226-0.0308-3.6451-0.0532-5.4669-0.0355c-3.9937,0.0388-8.0506,0.5418-12.0067-0.174 c-1.8221-0.3297-3.6292-0.7466-5.476-0.9226c-1.8439-0.1758-3.6602,0.0271-5.4819,0.3215c-1.8698,0.3022-3.723,0.723-5.6235,0.7731 c-0.3657,0.0096-0.7321,0.0092-1.0984,0.01c0.2435-6.6246,0.1459-13.2654,0.2467-19.8935c0.0587-3.8616,0.2052-7.7219,0.254-11.5831 c0.017-1.3401,0.0662-2.6792,0.121-4.0181C73.5239,109.8382,74.4195,109.8585,75.3186,109.9534z M72.3561,167.4556 c-0.0761-2.0911-0.015-4.1892-0.156-6.2769c-0.2642-3.9097-0.6428-7.6622-0.3957-11.588c0.0258-0.4104,0.0428-0.8212,0.0652-1.2318 c0.4117-0.0069,0.8267-0.0073,1.2362-0.0181c3.7388-0.0985,7.3428-1.4643,11.1054-1.0947c1.8868,0.1853,3.7298,0.6805,5.6004,0.9738 c2.0266,0.3178,4.0266,0.3375,6.073,0.2858c3.8582-0.0975,7.7145-0.0981,11.5709-0.082c0.1743,1.5232,0.3502,3.0472,0.3761,4.5812 c0.0341,2.0186-0.1635,4.0345-0.3339,6.0435c-0.347,4.0907-0.3085,8.2067-0.3674,12.3099 c-0.0464,3.2246,0.3049,6.4075,0.4724,9.6091c-1.6464,0.0429-3.2919,0.0943-4.931,0.1325 c-4.0424,0.0943-8.0447,0.6029-12.0952,0.5154c-3.9556-0.0854-7.9769-0.0125-11.9095-0.4534 c-1.8492-0.2073-3.697-0.4668-5.5609-0.4885c-0.3899-0.0045-0.7797,0.0056-1.1696,0.0151c0.2559-2.4775,0.5797-4.9487,0.5863-7.4413 C72.5279,171.3157,72.4264,169.3855,72.3561,167.4556z M110.2778,177.4791c-0.3281-4.0444-0.0975-8.1122-0.0512-12.1642 c0.0477-4.1803,0.7076-8.3623,0.5989-12.538c-0.0378-1.4548-0.1909-2.8986-0.3466-4.3404c3.2021,0.0173,6.4045,0.0345,9.6086,0.0069 c4.0334-0.0349,8.0713,0.0157,12.1048,0.0482c4.0432,0.0325,8.0659-0.785,12.0983-0.6252c0.1266,0.005,0.2519,0.0219,0.3782,0.0297 c0.0917,2.8481,0.2422,5.6923,0.1497,8.5495c-0.1306,4.0361-0.2667,8.0609-0.2791,12.1c-0.0124,4.0703,0.0432,8.0518,0.4212,12.1063 c0.0151,0.1624,0.0205,0.3218,0.0327,0.4833c-1.9928,0.1412-4.0104,0.091-6.0067,0.1246c-4.0356,0.068-8.0687,0.0894-12.1049,0.0859 c-1.9365-0.0017-3.8748,0.0516-5.8098-0.04c-2.1006-0.0994-4.1949-0.3155-6.2977-0.3747c-1.424-0.04-2.8531-0.0352-4.2832-0.0172 C110.4388,179.7748,110.3714,178.6325,110.2778,177.4791z M147.5155,174.3639c-0.0087-4.0335-0.0263-8.0779,0.0875-12.1099 c0.114-4.0398,0.3578-8.0603,0.1912-12.1028c-0.0258-0.6264-0.0541-1.253-0.0822-1.8795c0.7258,0.1217,1.4507,0.2503,2.1771,0.3652 c2.0151,0.3188,3.9929,0.4236,6.0305,0.4413c3.8729,0.0336,7.7478,0.0903,11.6207,0.0604c4.036-0.0313,8.0727-0.0173,12.108-0.0996 c0.5905-0.0121,1.1815-0.0135,1.7723-0.0176c0.1356,2.6342,0.2592,5.2702,0.0473,7.9001c-0.1563,1.9409-0.4272,3.8726-0.5115,5.8192 c-0.0882,2.037,0.1111,4.0469,0.3643,6.0656c0.2311,1.8434,0.4936,3.6912,0.509,5.5525c0.0167,2.0157-0.3001,4.0082-0.5504,6.0025 c-0.0125,0.0993-0.0187,0.1985-0.0302,0.2979c-2.3066,0.0375-4.6186,0.0225-6.9067,0.0516 c-3.9859,0.0508-8.0454,0.4069-12.0245,0.1319c-3.9228-0.2711-7.6177-1.0117-11.5636-0.4863 c-0.9304,0.1239-1.8574,0.2805-2.786,0.4241C147.7783,178.6442,147.5201,176.5103,147.5155,174.3639z M209.1988,146.1162 c-1.9078,0.2004-3.8229,0.3702-5.7416,0.2353c-2.0189-0.142-4.0071-0.5568-6.0145-0.799c-4.0215-0.485-7.9612,0.3081-11.9758,0.4183 c-0.3842,0.0106-0.7695,0.0113-1.1539,0.0203c-0.0845-2.329-0.1845-4.6571-0.3955-6.9771 c-0.1755-1.9293-0.3703-3.8636-0.3525-5.8033c0.0192-2.1091,0.3069-4.2017,0.4905-6.2996 c0.3495-3.9924-0.3637-7.7446-0.6908-11.7014c-0.1277-1.5447-0.1332-3.0963-0.0934-4.6498 c2.6011-0.0866,5.2011-0.1802,7.8013-0.3384c4.108-0.2499,8.1868-0.0343,12.296,0.014c3.9034,0.0458,7.7941-0.3099,11.6946-0.3569 c-0.3929,3.9039-0.0865,7.7831,0.0003,11.6982c0.0865,3.8979-0.5436,7.7294-0.6239,11.6169 c-0.0836,4.0506,0.7507,8.0462,0.6047,12.1036c-0.0051,0.1418-0.0109,0.2847-0.016,0.4266 C213.0865,145.798,211.1464,145.9116,209.1988,146.1162z M191.9669,32.0842c4.5469-0.4126,8.9826,0.5386,13.5186,0.4769 c3.2811-0.0447,6.5884-0.1791,9.8797-0.3437c-0.019,1.8532-0.097,3.7073-0.2802,5.5914c-0.3943,4.0574-0.0895,8.0482,0.0707,12.1082 c0.1604,4.0632-0.4324,8.0539-0.4692,12.1063c-0.0217,2.3837,0.4512,4.7197,0.7877,7.0671 c-2.0307,0.0079-4.0613,0.048-6.0999,0.1252c-1.9276,0.0731-3.8627,0.1641-5.7915,0.0916 c-2.0964-0.0789-4.1804-0.3397-6.2737-0.4667c-1.9276-0.117-3.8604-0.0704-5.7899-0.1566c-2.091-0.0934-4.1815-0.2461-6.2755-0.252 c-0.8526-0.0024-1.6976,0.0691-2.5391,0.1718c0.0219-0.4133,0.0444-0.8267,0.0663-1.2394c0.216-4.0825-0.0404-8.0398-0.3214-12.1096 c-0.3034-4.3945,0.3463-8.7129,0.3612-13.1005c0.0108-3.197,0.2672-6.3689,0.3049-9.5519 C186.0746,32.6402,188.9671,32.3565,191.9669,32.0842z M156.7568,33.0731c1.9302-0.1442,3.8511-0.394,5.7829-0.5192 c1.9256-0.1249,3.8594-0.1169,5.7874-0.2045c3.9572-0.1796,7.8001-0.2283,11.7441,0.1006c0.0136,1.7762-0.0175,3.5551-0.1202,5.361 c-0.1102,1.9368-0.0969,3.8682-0.1575,5.8054c-0.0659,2.1071-0.3027,4.2037-0.4127,6.3083 c-0.2033,3.8943,0.3832,7.7336,0.519,11.6169c0.0878,2.5128-0.1154,5.022-0.235,7.5316c-1.8201,0.3126-3.64,0.6135-5.4922,0.5709 c-1.8828-0.0433-3.7316-0.4139-5.5895-0.684c-2.0134-0.2926-3.9814-0.3912-6.0146-0.3496c-4.016,0.0823-8.045,0.1292-12.0576,0.3015 c-0.6959,0.0299-1.391,0.0381-2.0865,0.0605c0.0533-0.6993,0.1097-1.3983,0.1624-2.0959c0.2934-3.8853,0.1553-7.735,0.0604-11.625 c-0.0555-2.2752-0.0209-4.5157,0.2235-6.7802c0.2443-2.2638,0.5352-4.5098,0.5262-6.7912c-0.0114-2.9339-0.0328-5.9187-0.169-8.8823 C151.7268,33.0171,154.2176,33.2628,156.7568,33.0731z M121.0598,32.8134c4.027-0.0053,8.0353,0.2521,12.0585,0.2841 c3.8663,0.0307,7.7042-0.5952,11.5685-0.5657c0.4957,0.0038,0.9899,0.0199,1.4828,0.0436c0.0391,1.5844,0.0615,3.1698,0.1175,4.7536 c0.0682,1.9317,0.1649,3.874,0.0909,5.8067c-0.0808,2.1113-0.4099,4.2018-0.6071,6.3032c-0.3775,4.0232,0.0079,8.0747,0.0322,12.106 c0.0151,2.5116-0.2449,5.0126-0.4139,7.5158c-2.3124,0.0478-4.6251,0.0796-6.9411,0.1054 c-1.9275,0.0215-3.8654,0.0845-5.7913-0.0157c-2.0979-0.1091-4.1786-0.4179-6.2721-0.5797 c-3.871-0.2991-7.7169,0.2278-11.5851,0.296c-1.3782,0.0243-2.7581,0.0184-4.1381,0.0042c0.0012-0.4489,0.0085-0.8962,0.0054-1.3462 c-0.0287-4.1047-0.0958-8.2043-0.2051-12.3076c-0.0545-2.0486-0.0388-4.0943-0.2644-6.1338 c-0.2117-1.9127-0.5389-3.8132-0.6718-5.7343c-0.2436-3.5236,0.7346-6.9316,0.9651-10.4183 C114.0129,32.8546,117.5363,32.8181,121.0598,32.8134z M85.3643,33.0839c1.937,0.0998,3.8623,0.3505,5.7977,0.4722 c2.0938,0.1317,4.1816,0.0356,6.2729-0.0973c3.3469-0.2126,6.6967-0.3487,10.0478-0.4478 c-0.1039,1.4661-0.3391,2.9078-0.5707,4.3759c-0.3132,1.9851-0.5245,3.9503-0.3864,5.962c0.1318,1.9211,0.4601,3.8217,0.6718,5.7343 c0.4522,4.0876,0.3693,8.3148,0.4229,12.4263c0.0317,2.4351,0.0822,4.8784,0.0982,7.3201 c-1.6628-0.0307-3.3253-0.0654-4.9858-0.0826c-8.0475-0.0835-16.0844-0.5107-24.1308-0.5149 c-2.3624-0.0013-4.7177,0.0219-7.0729,0.064c-0.032-4.5898,0.0698-9.1877,0.0066-13.7664 c-0.0314-2.2759,0.0256-4.4957,0.3033-6.7573c0.2737-2.2288,0.6024-4.4587,0.4766-6.7108 c-0.1199-2.1469-0.5707-4.2547-0.8538-6.3817c-0.0471-0.3535-0.0738-0.707-0.1038-1.0606c0.8082-0.0336,1.6164-0.067,2.4242-0.0854 C77.6433,33.4456,81.4986,32.8848,85.3643,33.0839z M38.0929,33.8753c4.0203-0.3425,8.0263-0.2753,12.0571-0.2632 c3.8669,0.0116,7.7136,0.2165,11.5775,0.2872c2.2334,0.0408,4.4681-0.0486,6.7025-0.1516c0.0748,1.0313,0.1835,2.0657,0.3469,3.1093 c0.2916,1.8629,0.5955,3.7167,0.567,5.6089c-0.0316,2.1047-0.389,4.1852-0.6203,6.2726c-0.4421,3.9911-0.1345,8.0558-0.0939,12.0633 c0.0256,2.5237-0.0271,5.047-0.0583,7.5703c-0.6793,0.0199-1.3573,0.0262-2.0376,0.0522c-1.7698,0.0678-3.5417,0.0186-5.3102,0.1036 c-2.0974,0.1009-4.1833,0.3647-6.2807,0.4645c-4.4032,0.2093-8.6303-1.1538-13.0209-1.1153 c-3.3356,0.0292-6.6423,0.2023-9.9653,0.2292c0.0057-0.3324,0.0026-0.6625,0.0118-0.9959c0.1073-3.886-0.0559-7.7009-0.3018-11.5784 c-0.2861-4.5121,0.0884-9.0052,0.0625-13.5182c-0.015-2.5998-0.1161-5.195-0.1939-7.7913 C33.7228,34.1522,35.9091,34.0613,38.0929,33.8753z M32.4647,91.2294c-0.0229-4.0195,0.1116-8.0479-0.1696-12.0606 c-0.189-2.6958-0.3121-5.3596-0.3458-8.0366c1.8724,0.0218,3.7451,0.009,5.6242-0.0869c1.9198-0.098,3.852-0.2314,5.775-0.1549 c2.0353,0.081,4.0297,0.513,6.0402,0.8037c3.9953,0.5778,7.8384,0.0247,11.8347-0.1662c2.4312-0.1161,4.8826-0.1947,7.3323-0.2491 c0.0003,0.3682-0.0042,0.7364-0.0009,1.1046c0.0176,1.936,0.2025,3.8599,0.3668,5.7874c0.1783,2.092,0.1807,4.1791,0.2969,6.2727 c0.215,3.8752,0.5296,7.6911,0.5793,11.5761c0.0472,3.6885-0.0059,7.3729-0.0925,11.0566 c-2.0344,0.2109-4.0657,0.4991-6.1196,0.5322c-4.1582,0.0669-8.3295-0.1925-12.4888-0.2296 c-3.9218-0.035-7.9095,0.1275-11.8076-0.3478c-1.8903-0.2305-3.7728-0.565-5.6766-0.6686 c-0.1633-0.0089-0.3278-0.0074-0.4913-0.0146c0.0189-1.0217,0.0312-2.0436,0.0226-3.0655 C33.1104,99.253,32.4878,95.2623,32.4647,91.2294z M32.635,132.736c0.0343-2.0199,0.4197-4.0053,0.6861-6.0019 c0.5093-3.8186,0.0344-7.5738-0.1918-11.3959c-0.1183-1.9997-0.1066-3.9995-0.0694-5.9996c0.184,0.0092,0.369,0.0137,0.5528,0.0237 c1.9037,0.1036,3.7863,0.4382,5.6766,0.6686c2.0101,0.2451,4.01,0.2719,6.0316,0.2922c3.9827,0.0399,7.9662,0.0502,11.9478,0.1605 c2.103,0.0582,4.213,0.1586,6.317,0.1247c1.9162-0.0309,3.8159-0.3107,5.7175-0.5217c0.1088-0.0121,0.2174-0.0199,0.3262-0.0314 c-0.0948,3.3632-0.206,6.7265-0.2999,10.0927c-0.22,7.883-0.0762,15.7687-0.2152,23.6514 c-0.0089,0.5018-0.0266,1.0035-0.0494,1.5052c-0.7413-0.0212-1.4824-0.0433-2.2216-0.0579 c-1.9348-0.0381-3.8797-0.0013-5.8117-0.112c-2.1034-0.1204-4.1879-0.4471-6.2869-0.617 c-4.4036-0.3564-8.6705,0.7863-13.0558,0.6865c-2.1705-0.0494-4.3122-0.4406-6.4646-0.6848 c-0.852-0.0967-1.7044-0.1421-2.5573-0.1726c0.0013-1.9509,0.0167-3.9017,0.0076-5.8536 C32.6654,136.5759,32.6024,134.6528,32.635,132.736z M37.5376,147.8166c1.8412,0.2415,3.6794,0.4454,5.5396,0.3746 c2.0156-0.0767,4.0106-0.3944,6.0148-0.5988c4.0438-0.4125,7.9171,0.312,11.9395,0.5424c2.5856,0.1481,5.2234,0.2274,7.8481,0.2413 c-0.158,2.334-0.313,4.6679-0.1806,7.0063c0.1097,1.9368,0.3704,3.8612,0.5012,5.7964c0.1411,2.0876,0.0799,4.1857,0.156,6.2769 c0.1487,4.0844,0.1302,8.0008-0.3547,12.064c-0.0529,0.4432-0.0828,0.8895-0.1248,1.3342 c-0.6771,0.0515-1.3539,0.1053-2.0297,0.1563c-4.0653,0.3065-8.0452,0.0784-12.1093-0.0624 c-2.21-0.0765-4.3328,0.0414-6.5085,0.4468c-2.1937,0.4087-4.3149,0.889-6.5564,0.9285c-2.7201,0.0479-5.477,0.2245-8.2201,0.223 c0.1659-2.7981,0.7191-5.5628,0.749-8.3795c0.0413-3.8989-1.2916-7.6455-1.3533-11.5466 c-0.0636-4.0219-0.2255-8.0426-0.1896-12.0656c0.0093-1.0497-0.0005-2.0988,0.0041-3.1481 C34.2868,147.4879,35.9098,147.6031,37.5376,147.8166z M60.1922,214.0665c-2.0131,0.2108-3.9995,0.6357-6.0162,0.8116 c-4.2252,0.3686-8.2711-1.1238-12.4792-1.0504c-2.17,0.0379-4.3123,0.4303-6.4638,0.6735c-0.2654,0.03-0.5293,0.0437-0.7939,0.0659 c0.0504-1.7201-0.0137-3.4517-0.024-5.1682c-0.0241-4.0205-0.0608-8.0405-0.1125-12.0607c-0.0248-1.929,0.0055-3.8622-0.1706-5.7851 c-0.1845-2.0149-0.5209-4.0142-0.6673-6.0327c1.2894-0.0217,2.5801-0.0756,3.8643-0.1072c1.9125-0.0471,3.8465,0.0002,5.7544-0.1362 c2.009-0.1437,3.9693-0.6219,5.9435-0.9897c3.973-0.7402,8.0005-0.1401,12.0061-0.0605c2.548,0.0506,5.0823-0.2012,7.6191-0.3824 c-0.132,2.4169-0.1888,4.8419-0.295,7.2534c-0.0998,2.2641-0.0972,4.501,0.0862,6.7609c0.1828,2.2515,0.431,4.4983,0.3696,6.7609 c-0.0851,3.1335-0.469,6.2143-0.6113,9.3241c-0.7675-0.0009-1.5349-0.001-2.3054,0.0001 C63.9953,213.9466,62.0857,213.8682,60.1922,214.0665z M101.7153,215.0642c-4.0491-0.167-8.0355-0.571-12.0963-0.4906 c-3.8995,0.0773-7.733,0.1667-11.6184-0.237c-2.2667-0.2355-4.5233-0.3265-6.7836-0.365c0.0323-1.6602,0.1093-3.322,0.2742-5.0093 c0.1882-1.9253,0.3666-3.8535,0.3266-5.7902c-0.0434-2.0999-0.3054-4.1866-0.4489-6.2804 c-0.2758-4.0242,0.1736-8.0447,0.2701-12.0676c0.0092-0.3799,0.0294-0.7589,0.0504-1.1378 c0.4718-0.0121,0.9439-0.0182,1.4164-0.0127c1.8639,0.0217,3.7117,0.2812,5.5609,0.4885c2.0389,0.2286,4.048,0.2482,6.0958,0.2821 c4.0488,0.0671,8.0598,0.2912,12.1069,0.0072c3.6066-0.2531,7.2001-0.3558,10.8097-0.4339 c-0.0028,3.8894-0.3986,7.7696-0.3306,11.6617c0.069,3.9485,0.3798,7.8669,0.0773,11.8142c-0.1903,2.484-0.3325,4.9288-0.3918,7.385 C105.2658,215.0221,103.4958,215.1376,101.7153,215.0642z M125.4356,215.1223c-3.8964,0.0718-7.7305-0.5326-11.617-0.6116 c-1.2909-0.0262-2.5767,0.041-3.861,0.1346c0.0046-0.4127-0.0054-0.8253,0.0104-1.238c0.1501-3.9203,0.7022-7.7793,0.5896-11.7132 c-0.1168-4.0795-0.2596-8.1099-0.0656-12.1909c0.0885-1.8611,0.113-3.6923,0.0893-5.5209 c3.5082-0.0095,6.9741,0.1567,10.4908,0.3232c4.0182,0.1902,8.0842,0.0716,12.1068,0.0383 c3.9421-0.0327,7.9628,0.0846,11.8951-0.2134c-0.0477,2.5924-0.3555,5.1335-0.6221,7.7849 c-0.4515,4.4905,0.4548,8.9221,0.3403,13.4085c-0.0554,2.1729-0.4711,4.3132-0.7327,6.4657 c-0.131,1.0775-0.1876,2.1509-0.2028,3.2254C137.7156,214.989,131.5807,215.009,125.4356,215.1223z M161.744,215.2577 c-4.0358-0.0874-8.066-0.1735-12.1029-0.2067c-0.9312-0.0076-1.8615-0.0114-2.7922-0.0174 c0.0278-1.8907,0.2809-3.7467,0.5401-5.6215c0.5523-3.9951,0.2379-7.8176-0.0035-11.8212 c-0.2394-3.9688,0.4933-7.7379,0.7372-11.6756c0.0439-0.7084,0.0432-1.415,0.0264-2.1209c2.8582-0.3846,5.665-0.8561,8.6129-0.5714 c1.8549,0.1791,3.6958,0.4908,5.5558,0.6193c2.0602,0.1423,4.1407,0.0284,6.2031-0.0186c4.035-0.0917,8.0706-0.1461,12.1058-0.2286 c0.1359-0.0027,0.2722-0.0033,0.4082-0.0054c-0.0983,2.8898,0.0837,5.7805,0.168,8.6823c0.1264,4.35,0.0874,8.7058,0.2287,13.0552 c0.0704,2.1649,0.4221,4.3039,0.656,6.4539c0.1168,1.0734,0.1765,2.142,0.1957,3.2114c-2.972,0.0624-5.9446,0.1201-8.9167,0.146 C169.4915,215.1724,165.6197,215.3417,161.744,215.2577z M209.2005,214.7771c-3.8658-0.2457-7.7526-0.187-11.6253-0.2343 c-4.0471-0.0494-8.0602,0.2959-12.1018,0.3836c-0.0598,0.0013-0.1198,0.0024-0.1796,0.0037 c-0.0411-1.8301-0.2625-3.6429-0.4866-5.4599c-0.4865-3.9417-0.4402-7.9093-0.5106-11.8754 c-0.0687-3.8725-0.2119-7.7408-0.3011-11.6125c-0.0189-0.8163,0.0146-1.6272,0.0684-2.436c0.7649-0.0176,1.5292-0.045,2.2902-0.108 c2.0093-0.1663,3.9966-0.5244,6.0031-0.716c2.2112-0.2113,4.447-0.1747,6.6658-0.2702c2.263-0.0974,4.5263-0.2104,6.7921-0.2028 c2.7924,0.0095,5.5778,0.0785,8.3652,0.1114c-0.121,1.3298-0.1643,2.6602-0.0352,3.9998c0.1947,2.0197,0.6536,4.0002,0.892,6.0131 c0.5238,4.4232-1.2396,8.5683-1.1849,12.9644c0.0282,2.2677,0.3713,4.5163,0.5598,6.7728c0.0809,0.9684,0.113,1.9389,0.1329,2.9099 C212.7613,215.0161,210.9803,214.8902,209.2005,214.7771z" style="fill: inherit;"/></g></svg>