<?xml version="1.0" encoding="UTF-8"?><svg xmlns="http://www.w3.org/2000/svg" xmlns:xlink="http://www.w3.org/1999/xlink" height="74.0" preserveAspectRatio="xMidYMid meet" version="1.0" viewBox="-0.4 -1.3 411.9 74.0" width="411.9" zoomAndPan="magnify"><g><g id="change1_3"><path d="M1.4,31.8C9.9,19.1,24.8,12.2,38.5,6.9c7.7-3,15.9-4.9,24.2-4.4C70.8,3,78.3,6,84.5,11.2c10.3,8.5,17,20.6,27.6,28.9 c12.7,10,29.1,10,43.9,5c8.3-2.8,16.1-6.9,23.9-10.9c8.6-4.5,17.3-8.9,25.9-13.4c8.2-4.2,16.3-8.7,24.8-12.1 c7.9-3.2,16.5-5.6,25.1-4.9c14.7,1.2,24,12.5,33.8,22.2c4.3,4.3,8.8,8.4,14.3,11.1c6.6,3.3,13.9,3.7,21.1,2.1 c7.5-1.7,14.2-5.4,21.3-8.2c5.9-2.3,11.9-4.3,17.9-6.2c12.8-4.2,25.9-7.9,38.2-13.3c2.4-1,4.7-2.2,7-3.4c0.8-0.5,0.1-1.8-0.8-1.3 c-11.2,6.4-24.1,9.9-36.4,13.9c-6.5,2.1-13.1,4.2-19.6,6.5c-5.9,2.1-11.6,4.7-17.4,7.1c-8.2,3.5-17.4,6.1-26.3,3.4 c-6.1-1.9-11.2-5.8-15.8-10.2c-9.1-8.6-17.2-19.6-29.7-23.6c-16.3-5.2-33.4,2.9-47.6,10.2c-8.5,4.4-17,8.8-25.4,13.1 c-8.3,4.3-16.5,8.8-25.1,12.7c-15.5,7-34.4,11.2-49.5,1c-11.4-7.7-18.3-20.2-28.4-29.3C82,6.9,75.9,3.4,69,1.9 c-7.7-1.6-15.7-1-23.2,1c-7.2,1.9-14.2,5-20.9,8.3c-6.5,3.2-12.7,7-18.1,12c-2.5,2.4-4.8,5-6.7,7.8C-0.4,31.8,0.9,32.6,1.4,31.8 L1.4,31.8z" fill="inherit"/></g></g><g><g id="change1_2"><path d="M1.3,51.4C11.8,40.8,23.7,31.4,37,24.4C50,17.5,64.8,12.8,79.7,13.9c15,1.1,29.1,7.5,41.6,15.6 c6.5,4.2,12.6,8.8,18.5,13.7c5.7,4.8,11.4,9.7,17.8,13.5c13.2,7.8,28.6,8.3,43.5,6.9c14.5-1.4,28.8-4.7,42.3-10 c13.4-5.2,26-12.2,37.3-21c11.9-9.2,25.4-20.1,41.4-19.1c4,0.2,7.9,1.3,11.5,3c3.6,1.7,6.9,4.1,10.3,6.2c6.8,4.1,13.9,7.9,20.7,12 c3.4,2.1,6.6,4.2,9.8,6.5c2.6,1.9,5.3,3.5,8.4,4.2c5.4,1.2,10.8-0.4,15.9-1.9c3.3-1,6.6-1.9,10-2.5c0.9-0.2,0.5-1.6-0.4-1.4 c-6.4,1.2-12.6,3.9-19,4.6c-2.9,0.3-5.9,0-8.6-1c-3.5-1.4-6.4-3.9-9.5-6c-6.6-4.5-13.6-8.3-20.5-12.2c-3.5-2-7-4.1-10.4-6.3 c-3.2-2.1-6.4-3.9-10-5.1c-14.3-4.7-28.7,2.1-40.2,10.2C284,28,278.3,33,272,37.2c-6.1,4.1-12.6,7.7-19.3,10.9 c-13.6,6.4-28.1,10.7-42.9,12.9c-15.3,2.3-32.3,3.5-46.7-3.1c-7.2-3.3-13.4-8.4-19.5-13.5c-5.6-4.7-11.2-9.2-17.2-13.4 c-12-8.3-25.4-15.3-39.9-17.8C57.4,8.2,29.1,24.2,8,42.9c-2.7,2.4-5.3,4.9-7.8,7.4C-0.4,51,0.6,52.1,1.3,51.4L1.3,51.4z" fill="inherit"/></g></g><g><g id="change1_1"><path d="M1.7,34.9c10.4,11,20.6,22.9,34.8,29c7.6,3.2,15.9,4.9,24.2,3.6c8.3-1.4,16.3-5.8,23.6-9.8c14.8-8,28.5-17.9,43.6-25.5 c7.9-4,16-7.2,25-7.2c7.8-0.1,14.9,2.2,22.2,4.8c10.2,3.7,19.8,8.2,28.6,14.8c8.9,6.6,17.9,12.4,28.5,16c16.1,5.4,33.3,6,49.5,0.5 c8.3-2.8,16.2-6.6,24-10.5c8.2-4,16.1-8.5,23.9-13.3c3.8-2.4,7.4-5,11.3-7.2c3.4-1.9,7-3.3,10.7-4.5c3.7-1.2,7.5-2.2,11.3-3.3 c2.7-0.8,5.1-1.4,7.9-1.4c5.9,0.2,11.8,2,17.3,4.1c5.7,2.2,11.3,4.9,16.4,8.3c1.9,1.3,3.8,2.7,5.3,4.4c0.7,0.7,1.7-0.4,1.1-1.1 c-3.5-3.7-8.1-6.4-12.5-8.7c-5.5-2.8-11.2-5.2-17.1-6.8c-4.7-1.3-9.9-2.4-14.8-1.5c-3.5,0.7-7,2-10.4,3c-3.6,1-7.2,2.2-10.7,3.6 c-7.9,3.3-14.7,8.7-22,13c-7.8,4.6-15.8,8.8-24,12.7c-8.1,3.9-16.3,7.5-25.1,9.6c-8.8,2.1-18,2.2-26.9,0.9 c-13.7-2-26.6-7.4-37.8-15.5c-3.1-2.3-6.1-4.7-9.3-6.8c-4.1-2.8-8.6-5.2-13.1-7.2c-13-5.9-27.1-11.4-41.6-8.9 c-8.4,1.5-16.2,5.5-23.7,9.6c-7.3,4-14.4,8.5-21.5,12.8C93.2,51,86,55.3,78.6,59.1c-8.3,4.2-16.7,8-26.2,7.3 c-17-1.1-30.4-12.3-41.6-24.1c-2.7-2.8-5.3-5.7-8-8.5C2.1,33.1,1.1,34.2,1.7,34.9L1.7,34.9z" fill="inherit"/></g></g><g><g id="change1_4"><path d="M0.6,60.6c7.3,2.5,14.8,5.1,22.5,6.1c5.9,0.7,12-0.2,17.5-2.4c11.5-4.5,20.6-13.5,29-22.3c9.2-9.7,17.9-20.1,28.7-28.1 c12-8.9,26.5-12.5,41.3-12.3c16.6,0.2,32.9,5.3,47.3,13.4c7.4,4.2,14.2,9.2,20.5,14.9c6.6,6,12,12.9,17.8,19.7 c5.8,6.7,12.3,12.4,20.4,16.2c7.5,3.5,15.7,5.3,23.9,5.8c18.4,1.1,35.9-4.6,52.2-12.5c4.4-2.1,8.7-4.4,13-6.7 c4.1-2.2,8.1-4.6,12.4-6.5c5.5-2.4,11.7-1.1,17.2,0.6c11.9,3.8,23.9,11.8,36.9,10.6c2.9-0.3,5.6-1.1,8.2-2.4 c0.9-0.4,0.1-1.7-0.8-1.3c-12.1,6.3-26.2-1.5-37.5-6c-5.5-2.2-11.3-4.4-17.3-4.4c-2.6,0-5.1,0.5-7.5,1.5 c-4.2,1.9-8.3,4.3-12.4,6.5c-16.8,8.9-34.2,17.4-53.5,18.9c-17.4,1.3-35.5-2.9-48.4-15.2c-6.6-6.4-11.9-14-18.2-20.6 c-5.5-5.7-11.6-10.9-18.2-15.3c-13.5-9.2-29-15.6-45.2-17.8c-14.5-1.9-30.4-0.7-43.6,6c-11.5,5.8-20.6,15.3-29.3,24.5 C68.7,40.7,60.2,50.8,49.4,58c-5,3.3-10.5,5.8-16.4,6.9c-7.2,1.3-14.2-0.2-21.2-2.2C8.2,61.6,4.6,60.4,1,59.2 C0.1,58.8-0.3,60.3,0.6,60.6L0.6,60.6z" fill="inherit"/></g></g></svg>